<svg width="60" height="60" viewBox="0 0 60 60" fill="none" xmlns="http://www.w3.org/2000/svg">
<path d="M29.9991 0.9C18.3172 0.9 8.81071 10.4065 8.81071 22.0896C8.81071 25.1415 9.43482 28.047 10.6612 30.7323C16.1255 42.6895 26.6362 55.3635 29.75 58.9851C29.8123 59.0574 29.9035 59.0994 29.9997 59.0994C30.0957 59.0994 30.1868 59.0575 30.2491 58.9854C33.3615 55.3647 43.8726 42.6908 49.3389 30.732C50.5657 28.0469 51.1893 25.1416 51.1893 22.0897L29.9991 0.9ZM29.9991 0.9C41.6815 0.9 51.188 10.4064 51.1893 22.0896L29.9991 0.9ZM29.9991 34.463C23.1755 34.463 17.6251 28.9125 17.6251 22.089C17.6251 15.2648 23.1755 9.71435 29.9991 9.71435C36.8226 9.71435 42.373 15.2648 42.3731 22.0889L29.9991 34.463ZM29.9991 34.463C36.8231 34.463 42.3737 28.9126 42.3731 22.089L29.9991 34.463Z" stroke="white" stroke-width="1.8"/>
</svg>
